<svg xmlns="http://www.w3.org/2000/svg" width="900" height="520">
<rect width="100%" height="100%" fill="white"/>
<text x="450.0" y="32" text-anchor="middle" font-size="24" font-family="Arial">Stance Counts</text>
<line x1="90" y1="430" x2="860" y2="430" stroke="black"/>
<line x1="90" y1="60" x2="90" y2="430" stroke="black"/>
<line x1="85" y1="430.0" x2="860" y2="430.0" stroke="#dddddd"/>
<text x="80" y="434.0" text-anchor="end" font-size="12" font-family="Arial">0</text>
<line x1="85" y1="356.0" x2="860" y2="356.0" stroke="#dddddd"/>
<text x="80" y="360.0" text-anchor="end" font-size="12" font-family="Arial">152</text>
<line x1="85" y1="282.0" x2="860" y2="282.0" stroke="#dddddd"/>
<text x="80" y="286.0" text-anchor="end" font-size="12" font-family="Arial">304</text>
<line x1="85" y1="208.0" x2="860" y2="208.0" stroke="#dddddd"/>
<text x="80" y="212.0" text-anchor="end" font-size="12" font-family="Arial">455</text>
<line x1="85" y1="134.0" x2="860" y2="134.0" stroke="#dddddd"/>
<text x="80" y="138.0" text-anchor="end" font-size="12" font-family="Arial">607</text>
<line x1="85" y1="60.0" x2="860" y2="60.0" stroke="#dddddd"/>
<text x="80" y="64.0" text-anchor="end" font-size="12" font-family="Arial">759</text>
<rect x="142.5" y="369.6" width="71.9" height="60.4" fill="#457b9d"/>
<rect x="222.3" y="415.9" width="71.9" height="14.1" fill="#e76f51"/>
<text x="218.3" y="484" text-anchor="middle" font-size="14" font-family="Arial">neutral</text>
<text x="178.4" y="361.6" text-anchor="middle" font-size="12" font-family="Arial">124</text>
<text x="258.3" y="407.9" text-anchor="middle" font-size="12" font-family="Arial">29</text>
<rect x="399.1" y="139.0" width="71.9" height="291.0" fill="#457b9d"/>
<rect x="479.0" y="309.6" width="71.9" height="120.4" fill="#e76f51"/>
<text x="475.0" y="484" text-anchor="middle" font-size="14" font-family="Arial">proself</text>
<text x="435.1" y="131.0" text-anchor="middle" font-size="12" font-family="Arial">597</text>
<text x="514.9" y="301.6" text-anchor="middle" font-size="12" font-family="Arial">247</text>
<rect x="655.8" y="60.0" width="71.9" height="370.0" fill="#457b9d"/>
<rect x="735.7" y="256.9" width="71.9" height="173.1" fill="#e76f51"/>
<text x="731.7" y="484" text-anchor="middle" font-size="14" font-family="Arial">prosocial</text>
<text x="691.7" y="52.0" text-anchor="middle" font-size="12" font-family="Arial">759</text>
<text x="771.6" y="248.9" text-anchor="middle" font-size="12" font-family="Arial">355</text>
<rect x="680" y="52" width="16" height="16" fill="#457b9d"/>
<text x="704" y="65" font-size="13" font-family="Arial">baseline</text>
<rect x="780" y="52" width="16" height="16" fill="#e76f51"/>
<text x="804" y="65" font-size="13" font-family="Arial">rl</text>
</svg>