<svg xmlns="http://www.w3.org/2000/svg" width="900" height="520">
<rect width="100%" height="100%" fill="white"/>
<text x="450.0" y="32" text-anchor="middle" font-size="24" font-family="Arial">Stance Counts</text>
<line x1="90" y1="430" x2="860" y2="430" stroke="black"/>
<line x1="90" y1="60" x2="90" y2="430" stroke="black"/>
<line x1="85" y1="430.0" x2="860" y2="430.0" stroke="#dddddd"/>
<text x="80" y="434.0" text-anchor="end" font-size="12" font-family="Arial">0</text>
<line x1="85" y1="356.0" x2="860" y2="356.0" stroke="#dddddd"/>
<text x="80" y="360.0" text-anchor="end" font-size="12" font-family="Arial">171</text>
<line x1="85" y1="282.0" x2="860" y2="282.0" stroke="#dddddd"/>
<text x="80" y="286.0" text-anchor="end" font-size="12" font-family="Arial">342</text>
<line x1="85" y1="208.0" x2="860" y2="208.0" stroke="#dddddd"/>
<text x="80" y="212.0" text-anchor="end" font-size="12" font-family="Arial">512</text>
<line x1="85" y1="134.0" x2="860" y2="134.0" stroke="#dddddd"/>
<text x="80" y="138.0" text-anchor="end" font-size="12" font-family="Arial">683</text>
<line x1="85" y1="60.0" x2="860" y2="60.0" stroke="#dddddd"/>
<text x="80" y="64.0" text-anchor="end" font-size="12" font-family="Arial">854</text>
<rect x="142.5" y="376.3" width="71.9" height="53.7" fill="#457b9d"/>
<rect x="222.3" y="361.1" width="71.9" height="68.9" fill="#e76f51"/>
<text x="218.3" y="484" text-anchor="middle" font-size="14" font-family="Arial">neutral</text>
<text x="178.4" y="368.3" text-anchor="middle" font-size="12" font-family="Arial">124</text>
<text x="258.3" y="353.1" text-anchor="middle" font-size="12" font-family="Arial">159</text>
<rect x="399.1" y="171.3" width="71.9" height="258.7" fill="#457b9d"/>
<rect x="479.0" y="167.9" width="71.9" height="262.1" fill="#e76f51"/>
<text x="475.0" y="484" text-anchor="middle" font-size="14" font-family="Arial">proself</text>
<text x="435.1" y="163.3" text-anchor="middle" font-size="12" font-family="Arial">597</text>
<text x="514.9" y="159.9" text-anchor="middle" font-size="12" font-family="Arial">605</text>
<rect x="655.8" y="101.2" width="71.9" height="328.8" fill="#457b9d"/>
<rect x="735.7" y="60.0" width="71.9" height="370.0" fill="#e76f51"/>
<text x="731.7" y="484" text-anchor="middle" font-size="14" font-family="Arial">prosocial</text>
<text x="691.7" y="93.2" text-anchor="middle" font-size="12" font-family="Arial">759</text>
<text x="771.6" y="52.0" text-anchor="middle" font-size="12" font-family="Arial">854</text>
<rect x="680" y="52" width="16" height="16" fill="#457b9d"/>
<text x="704" y="65" font-size="13" font-family="Arial">baseline</text>
<rect x="780" y="52" width="16" height="16" fill="#e76f51"/>
<text x="804" y="65" font-size="13" font-family="Arial">rl</text>
</svg>