<svg xmlns="http://www.w3.org/2000/svg" width="900" height="520">
<rect width="100%" height="100%" fill="white"/>
<text x="450.0" y="32" text-anchor="middle" font-size="24" font-family="Arial">RL - Baseline Percentage Points</text>
<line x1="90" y1="245.0" x2="860" y2="245.0" stroke="black"/>
<line x1="90" y1="60" x2="90" y2="430" stroke="black"/>
<line x1="85" y1="430.0" x2="860" y2="430.0" stroke="#dddddd"/>
<text x="80" y="434.0" text-anchor="end" font-size="12" font-family="Arial">-2.9</text>
<line x1="85" y1="337.5" x2="860" y2="337.5" stroke="#dddddd"/>
<text x="80" y="341.5" text-anchor="end" font-size="12" font-family="Arial">-1.5</text>
<line x1="85" y1="245.0" x2="860" y2="245.0" stroke="#dddddd"/>
<text x="80" y="249.0" text-anchor="end" font-size="12" font-family="Arial">0.0</text>
<line x1="85" y1="152.5" x2="860" y2="152.5" stroke="#dddddd"/>
<text x="80" y="156.5" text-anchor="end" font-size="12" font-family="Arial">1.5</text>
<line x1="85" y1="60.0" x2="860" y2="60.0" stroke="#dddddd"/>
<text x="80" y="64.0" text-anchor="end" font-size="12" font-family="Arial">2.9</text>
<rect x="160.6" y="154.0" width="115.5" height="91.0" fill="#2a9d8f"/>
<text x="218.3" y="146.0" text-anchor="middle" font-size="12" font-family="Arial">1.45</text>
<text x="218.3" y="484" text-anchor="middle" font-size="14" font-family="Arial">neutral</text>
<rect x="417.2" y="245.0" width="115.5" height="185.0" fill="#e76f51"/>
<text x="475.0" y="448.0" text-anchor="middle" font-size="12" font-family="Arial">-2.95</text>
<text x="475.0" y="484" text-anchor="middle" font-size="14" font-family="Arial">proself</text>
<rect x="673.9" y="151.0" width="115.5" height="94.0" fill="#2a9d8f"/>
<text x="731.7" y="143.0" text-anchor="middle" font-size="12" font-family="Arial">1.50</text>
<text x="731.7" y="484" text-anchor="middle" font-size="14" font-family="Arial">prosocial</text>
</svg>