<svg xmlns="http://www.w3.org/2000/svg" width="900" height="520">
<rect width="100%" height="100%" fill="white"/>
<text x="450.0" y="32" text-anchor="middle" font-size="24" font-family="Arial">Normalized Stance Distribution</text>
<line x1="90" y1="430" x2="860" y2="430" stroke="black"/>
<line x1="90" y1="60" x2="90" y2="430" stroke="black"/>
<line x1="85" y1="430.0" x2="860" y2="430.0" stroke="#dddddd"/>
<text x="80" y="434.0" text-anchor="end" font-size="12" font-family="Arial">0.0</text>
<line x1="85" y1="356.0" x2="860" y2="356.0" stroke="#dddddd"/>
<text x="80" y="360.0" text-anchor="end" font-size="12" font-family="Arial">10.6</text>
<line x1="85" y1="282.0" x2="860" y2="282.0" stroke="#dddddd"/>
<text x="80" y="286.0" text-anchor="end" font-size="12" font-family="Arial">21.1</text>
<line x1="85" y1="208.0" x2="860" y2="208.0" stroke="#dddddd"/>
<text x="80" y="212.0" text-anchor="end" font-size="12" font-family="Arial">31.7</text>
<line x1="85" y1="134.0" x2="860" y2="134.0" stroke="#dddddd"/>
<text x="80" y="138.0" text-anchor="end" font-size="12" font-family="Arial">42.2</text>
<line x1="85" y1="60.0" x2="860" y2="60.0" stroke="#dddddd"/>
<text x="80" y="64.0" text-anchor="end" font-size="12" font-family="Arial">52.8</text>
<text x="90.0" y="484" text-anchor="middle" font-size="14" font-family="Arial">neutral</text>
<text x="475.0" y="484" text-anchor="middle" font-size="14" font-family="Arial">proself</text>
<text x="860.0" y="484" text-anchor="middle" font-size="14" font-family="Arial">prosocial</text>
<polyline fill="none" stroke="#457b9d" stroke-width="3" points="90.0,371.3 475.0,147.2 860.0,70.5"/>
<polyline fill="none" stroke="#e76f51" stroke-width="3" points="90.0,361.1 475.0,167.9 860.0,60.0"/>
<circle cx="90.0" cy="371.3" r="4" fill="#457b9d"/>
<text x="90.0" y="361.3" text-anchor="middle" font-size="12" font-family="Arial">8.38</text>
<circle cx="475.0" cy="147.2" r="4" fill="#457b9d"/>
<text x="475.0" y="137.2" text-anchor="middle" font-size="12" font-family="Arial">40.34</text>
<circle cx="860.0" cy="70.5" r="4" fill="#457b9d"/>
<text x="860.0" y="60.5" text-anchor="middle" font-size="12" font-family="Arial">51.28</text>
<circle cx="90.0" cy="361.1" r="4" fill="#e76f51"/>
<text x="90.0" y="351.1" text-anchor="middle" font-size="12" font-family="Arial">9.83</text>
<circle cx="475.0" cy="167.9" r="4" fill="#e76f51"/>
<text x="475.0" y="157.9" text-anchor="middle" font-size="12" font-family="Arial">37.39</text>
<circle cx="860.0" cy="60.0" r="4" fill="#e76f51"/>
<text x="860.0" y="50.0" text-anchor="middle" font-size="12" font-family="Arial">52.78</text>
<rect x="680" y="52" width="16" height="16" fill="#457b9d"/>
<text x="704" y="65" font-size="13" font-family="Arial">baseline</text>
<rect x="780" y="52" width="16" height="16" fill="#e76f51"/>
<text x="804" y="65" font-size="13" font-family="Arial">rl</text>
</svg>